# xmcd
#
# Track frame offsets:
#	150
#	44431
#	70659
#	92169
#	145371
#	171915
#	262156
#
# Disc length: 3895 seconds
#
# Revision: 0
# Processed by: cddbd v1.5.2PL0 Copyright (c) Steve Scherf et al.
# Submitted via: dBpowerAMP V4.0
#
DISCID=670f3507
DTITLE=Miles Davis - Kind of blue
DYEAR=1900
DGENRE=
TTITLE0=On green dolphin street
TTITLE1=Fran-dance
TTITLE2=Stella by starlight
TTITLE3=Love for Sale
TTITLE4=Fran-Dance
TTITLE5=So what
TTITLE6=DATA
EXTD=
EXTT0=
EXTT1=
EXTT2=
EXTT3=
EXTT4=
EXTT5=
EXTT6=
PLAYORDER=
